Simulation
nRows=40
nColumns=15
endheader
time  TH_x TH_y TH_z SC_y  SC_z  SC_x  AC_y  AC_z  AC_x  GH_y  GH_z  GH_yy  EL_x  PS_y
8.6175  0.000000  0.000000  0.000000  -37.795610345525596  1.9870534130595687  -4.2171159349638145  44.590220284961816  2.368538573405223  2.0024181157703036  32.69929088525984  5.947535596193033  -17.157635559743753  20.544958671419757  120.000000
8.67495  0.000000  0.000000  0.000000  -36.66158995061938  1.4666382215231508  -4.707049005843209  45.88632316756035  1.1766519448622212  3.2821800127066045  16.031591983357387  7.897926002038022  -2.750597328272751  20.516804468432085  120.000000
8.7324  0.000000  0.000000  0.000000  -35.74770729917174  0.7866063934533468  -5.248205905259459  47.59834717306695  -0.23096766805703864  5.018848405970666  5.112613449697346  10.779638361401995  6.168199649992717  20.663490585121888  120.000000
8.78985  0.000000  0.000000  0.000000  -35.072406420274234  -0.047403355946362635  -5.850412198600377  49.71388545173314  -1.876024204309752  7.205043412068319  -1.8033759443609996  14.460523153994007  11.417381177638424  20.948091543620656  120.000000
8.8473  0.000000  0.000000  0.000000  -34.62953114675385  -1.0069024821938601  -6.5249887022864135  52.12985011414264  -3.712325814853696  9.81056330911415  -6.253730061050943  18.73241676602297  14.561999266046481  21.282483081192716  120.000000
8.90475  0.000000  0.000000  0.000000  -34.44343614654172  -2.0254717153895894  -7.298570354950754  54.69580934964729  -5.589315422443  12.802669482835029  -8.98016947158398  23.25168452293225  16.361438375686944  21.589270966024753  120.000000
8.9622  0.000000  0.000000  0.000000  -34.541230181060925  -3.005481572275085  -8.154540815638617  57.28974180909953  -7.246239773297029  16.058309982223665  -10.2042613143792  27.55202459404347  17.05290234165753  21.831833244192435  120.000000
9.01965  0.000000  0.000000  0.000000  -34.887303258715946  -3.7943338368521853  -8.960488938589087  59.81935037055637  -8.388078035043298  19.324057318053395  -10.018491599193535  31.146132343919714  16.692964304909523  22.00492789938103  120.000000
9.0771  0.000000  0.000000  0.000000  -35.46103925967206  -4.218419727845424  -9.51235418458354  62.23617227065879  -8.783857219831052  22.266665548839907  -8.425130561693994  33.70639695489563  15.147734309949696  22.112419783946322  120.000000
9.13455  0.000000  0.000000  0.000000  -36.34394062003637  -4.131276651280375  -9.588607077575976  64.52210090894928  -8.378591440006053  24.605709429814556  -5.322097297726782  35.175581623486394  12.09651421016099  22.166564900204314  120.000000
9.192  0.000000  0.000000  0.000000  -37.60908009393796  -3.3579598668624633  -8.945666482023649  66.691571896524  -7.383465998060091  26.25743467889577  -0.6595362267843754  35.77022704957703  7.191376271230611  22.175022096406117  120.000000
9.24945  0.000000  0.000000  0.000000  -39.099529357112466  -1.7241409820578968  -7.288180991592615  68.71016130985998  -6.2590221344714045  27.345543065222788  5.2765511714265445  35.90147866956298  0.34647327763593644  22.100974252022976  120.000000
9.3069  0.000000  0.000000  0.000000  -40.544441480515  0.7997722248497904  -4.349035884677304  70.48007145152461  -5.407047150034068  28.017916438972964  12.018249908425993  35.950443812946126  -8.258851066768496  21.882360863152417  120.000000
9.36435  0.000000  0.000000  0.000000  -41.826063823876595  4.05093659072447  -0.016700301643655123  71.9223287590254  -4.902767372354938  28.304623614428227  19.34246328459198  36.211930805930045  -18.420328391113443  21.506230375284595  120.000000
9.421800000000001  0.000000  0.000000  0.000000  -43.10924389096675  7.812796862335134  5.6886606481880975  72.93304400741981  -4.728450211753755  28.23348830012642  27.11653938763941  36.991759589525294  -29.725757334484967  21.010225216374856  120.000000
9.47925  0.000000  0.000000  0.000000  -44.71192313057611  11.836849929746274  12.615558545070765  73.32117769736814  -4.915736692316019  27.85780444774523  35.006969718641386  38.46358202757924  -41.42694599211927  20.427391855507032  120.000000
9.5367  0.000000  0.000000  0.000000  -46.79143863459645  15.745796016075854  20.43327260793363  72.93210283484656  -5.4573628628911415  27.22490732596963  42.572045419178814  40.5634689132186  -52.68686355513196  19.816430212205105  120.000000
9.59415  0.000000  0.000000  0.000000  -49.18793381695698  19.160632390133454  28.665454153687037  71.81812162142879  -6.272829735241587  26.39822120424499  49.307728782546036  43.0831474122796  -62.679146952517854  19.23603621326817  120.000000
9.6516  0.000000  0.000000  0.000000  -51.58283163401954  21.846619768312813  36.73265296931336  70.18745087452496  -7.232765800834601  25.46318387853805  54.71781637968565  45.682026990434224  -70.72601381349074  18.706700309282404  120.000000
9.70905  0.000000  0.000000  0.000000  -53.73471586924781  23.674367414337993  44.07745822468874  68.33429314140534  -8.213008865345458  24.493196351272726  58.57947748845395  47.97445728781137  -76.54792796341502  18.26067224671041  120.000000
9.7665  0.000000  0.000000  0.000000  -55.470485974650444  24.657769666457586  50.261744885119825  66.56336753040691  -9.132098706548913  23.525507182242333  60.98781540582163  49.72796594130339  -80.2771771800123  17.931582560871902  120.000000
9.82395  0.000000  0.000000  0.000000  -56.65759972292959  24.94672745185319  55.010440984351256  65.0919023973254  -9.949473520338957  22.582212421967046  62.237310544787256  50.90909716379187  -82.29571021527975  17.72687914030804  120.000000
9.8814  0.000000  0.000000  0.000000  -57.251858243453405  24.778669023212768  58.23643716189003  64.01603605059971  -10.630472945957937  21.671513754343273  62.73500457864543  51.62359090017904  -83.09466623240392  17.63679637859685  120.000000
9.93885  0.000000  0.000000  0.000000  -57.3577445861924  24.465500425035042  60.03999731138497  63.31200169795236  -11.186188329698266  20.81019392385359  62.90161790033672  52.01228850336187  -83.15227548557094  17.63581192715106  120.000000
9.9963  0.000000  0.000000  0.000000  -57.17372062186581  24.294699835779014  60.62240907269379  62.90054059146278  -11.697876994131606  20.027313439260052  63.05676098468681  52.17452647842351  -82.8175471901481  17.689122478075255  120.000000
10.05375  0.000000  0.000000  0.000000  -56.7414464345449  24.316504005599533  60.030722163060524  62.74791138015098  -12.192472207481787  19.317704516959946  63.31170537479608  52.188245235460364  -82.21273991033307  17.76517421241427  120.000000
10.1112  0.000000  0.000000  0.000000  -55.897752270748036  24.332444986269103  58.072733970856824  62.88045534914442  -12.610763069422429  18.670026007527092  63.54019556739816  52.11939285940785  -81.20090165155926  17.849288964210917  120.000000
10.16865  0.000000  0.000000  0.000000  -54.52993807419628  24.07655718227974  54.57559866703798  63.33526529982785  -12.900141469726531  18.126352144883345  63.46171899972576  51.92942810017369  -79.45716108854313  17.932113615333407  120.000000
10.2261  0.000000  0.000000  0.000000  -52.67862506862245  23.281620036151658  49.52042396415815  64.08139755760398  -13.035035114904884  17.80285226066765  62.747014179364136  51.42362714070103  -76.59368071360232  17.985424415922225  120.000000
10.28355  0.000000  0.000000  0.000000  -50.52095114574814  21.746159754630014  43.07436964835304  65.03648767470165  -12.946637136706537  17.82880976564533  61.03282077442357  50.34780299960912  -72.21534767020188  17.977965179282577  120.000000
10.341000000000001  0.000000  0.000000  0.000000  -48.35120087328226  19.40966099828986  35.63350567044979  66.0932060920137  -12.54731307191715  18.323195433274932  57.95836013884307  48.53951462404997  -65.99330442482425  17.901907980028103  120.000000
10.39845  0.000000  0.000000  0.000000  -46.44466625722644  16.460904192664856  27.76084643323256  67.14756151033201  -11.791356420368079  19.34676074515832  53.18627532179216  46.0824132888336  -57.690706185110784  17.81419245307743  120.000000
10.4559  0.000000  0.000000  0.000000  -44.92555949953826  13.18448378356437  20.027225771955987  68.14012688489832  -10.701440437683681  20.838998685813422  46.584743311262855  43.337603589629474  -47.35163752170909  17.841068059922495  120.000000
10.51335  0.000000  0.000000  0.000000  -43.74045175150903  9.83634515891637  12.870496706585586  69.02312722759689  -9.384437107478135  22.626900799421424  38.46543490974132  40.7979035622372  -35.49973665787441  18.094634820103632  120.000000
10.5708  0.000000  0.000000  0.000000  -42.72526454049721  6.603403183126429  6.5398275062227595  69.7324688434921  -8.03902753816177  24.429863528815876  29.559993462923835  38.931214386058485  -23.128161463166727  18.607786579153682  120.000000
10.62825  0.000000  0.000000  0.000000  -41.7806484297336  3.618868798365032  1.156980179274805  70.06291098300895  -6.942075431347622  25.930089658126644  20.70535030091085  37.86708829991857  -11.304966574785777  19.30873799596846  120.000000
10.6857  0.000000  0.000000  0.000000  -40.79624629075787  1.0692022994046928  -3.1333237426954397  69.7676796865813  -6.358712627304954  26.853154214295405  12.350958045420922  37.47248984503891  -0.5977616014441239  20.128843129448697  120.000000
10.74315  0.000000  0.000000  0.000000  -39.6765558326863  -0.9700775968932945  -6.192838985177633  68.87326255778036  -6.384893626264944  27.079818292350293  4.8373207793569755  37.61635361373078  8.598040714498255  21.02184276900744  120.000000
10.8006  0.000000  0.000000  0.000000  -38.475339884892755  -2.508811550268781  -8.008547602716513  67.59781002891056  -6.9404030781569075  26.635892779061855  -1.457298295418912  38.063793043093646  15.99565411351789  21.903197100764952  120.000000
10.85805  0.000000  0.000000  0.000000  -37.39025652906888  -3.5899089126537858  -8.675118047349176  66.11975086538312  -7.924757822209467  25.560017814724425  -6.346656479154555  38.54238605318827  21.590960987722646  22.70225298155576  120.000000
